<?xml version="1.0" encoding="utf-8" standalone="no"?>
<!DOCTYPE svg PUBLIC "-//W3C//DTD SVG 1.1//EN"
  "http://www.w3.org/Graphics/SVG/1.1/DTD/svg11.dtd">
<svg xmlns:xlink="http://www.w3.org/1999/xlink" width="1105.92pt" height="543.168pt" viewBox="0 0 1105.92 543.168" xmlns="http://www.w3.org/2000/svg" version="1.1">
 <metadata>
  <rdf:RDF xmlns:dc="http://purl.org/dc/elements/1.1/" xmlns:cc="http://creativecommons.org/ns#" xmlns:rdf="http://www.w3.org/1999/02/22-rdf-syntax-ns#">
   <cc:Work>
    <dc:type rdf:resource="http://purl.org/dc/dcmitype/StillImage"/>
    <dc:date>2025-11-07T04:03:06.393536</dc:date>
    <dc:format>image/svg+xml</dc:format>
    <dc:creator>
     <cc:Agent>
      <dc:title>Matplotlib v3.10.7, https://matplotlib.org/</dc:title>
     </cc:Agent>
    </dc:creator>
   </cc:Work>
  </rdf:RDF>
 </metadata>
 <defs>
  <style type="text/css">*{stroke-linejoin: round; stroke-linecap: butt}</style>
 </defs>
 <g id="figure_1">
  <g id="patch_1">
   <path d="M 0 543.168 
L 1105.92 543.168 
L 1105.92 0 
L 0 0 
z
" style="fill: #ffffff"/>
  </g>
  <g id="axes_1">
   <g id="patch_2">
    <path d="M 138.24 483.41952 
L 995.328 483.41952 
L 995.328 65.18016 
L 138.24 65.18016 
z
" style="fill: #ffffff"/>
   </g>
   <g id="FillBetweenPolyCollection_1">
    <defs>
     <path id="mdc43f594f5" d="M 186.798397 -59.798175 
L 186.798397 -59.74848 
L 188.282128 -59.74848 
L 189.76586 -59.74848 
L 191.249591 -59.74848 
L 192.733323 -59.74848 
L 194.217054 -59.74848 
L 195.700785 -59.74848 
L 197.184517 -59.74848 
L 198.668248 -59.74848 
L 200.15198 -59.74848 
L 201.635711 -59.74848 
L 203.119443 -59.74848 
L 204.603174 -59.74848 
L 206.086906 -59.74848 
L 207.570637 -59.74848 
L 209.054369 -59.74848 
L 210.5381 -59.74848 
L 212.021832 -59.74848 
L 213.505563 -59.74848 
L 214.989295 -59.74848 
L 216.473026 -59.74848 
L 217.956758 -59.74848 
L 219.440489 -59.74848 
L 220.924221 -59.74848 
L 222.407952 -59.74848 
L 223.891684 -59.74848 
L 225.375415 -59.74848 
L 226.859147 -59.74848 
L 228.342878 -59.74848 
L 229.82661 -59.74848 
L 231.310341 -59.74848 
L 232.794073 -59.74848 
L 234.277804 -59.74848 
L 235.761536 -59.74848 
L 237.245267 -59.74848 
L 238.728999 -59.74848 
L 240.21273 -59.74848 
L 241.696462 -59.74848 
L 243.180193 -59.74848 
L 244.663925 -59.74848 
L 246.147656 -59.74848 
L 247.631388 -59.74848 
L 249.115119 -59.74848 
L 250.598851 -59.74848 
L 252.082582 -59.74848 
L 253.566314 -59.74848 
L 255.050045 -59.74848 
L 256.533776 -59.74848 
L 258.017508 -59.74848 
L 259.501239 -59.74848 
L 260.984971 -59.74848 
L 262.468702 -59.74848 
L 263.952434 -59.74848 
L 265.436165 -59.74848 
L 266.919897 -59.74848 
L 268.403628 -59.74848 
L 269.88736 -59.74848 
L 271.371091 -59.74848 
L 272.854823 -59.74848 
L 274.338554 -59.74848 
L 275.822286 -59.74848 
L 277.306017 -59.74848 
L 278.789749 -59.74848 
L 280.27348 -59.74848 
L 281.757212 -59.74848 
L 283.240943 -59.74848 
L 284.724675 -59.74848 
L 286.208406 -59.74848 
L 287.692138 -59.74848 
L 289.175869 -59.74848 
L 290.659601 -59.74848 
L 292.143332 -59.74848 
L 293.627064 -59.74848 
L 295.110795 -59.74848 
L 296.594527 -59.74848 
L 298.078258 -59.74848 
L 299.56199 -59.74848 
L 301.045721 -59.74848 
L 302.529453 -59.74848 
L 304.013184 -59.74848 
L 305.496916 -59.74848 
L 306.980647 -59.74848 
L 308.464379 -59.74848 
L 309.94811 -59.74848 
L 311.431842 -59.74848 
L 312.915573 -59.74848 
L 314.399305 -59.74848 
L 315.883036 -59.74848 
L 317.366768 -59.74848 
L 318.850499 -59.74848 
L 320.33423 -59.74848 
L 321.817962 -59.74848 
L 323.301693 -59.74848 
L 324.785425 -59.74848 
L 326.269156 -59.74848 
L 327.752888 -59.74848 
L 329.236619 -59.74848 
L 330.720351 -59.74848 
L 332.204082 -59.74848 
L 333.687814 -59.74848 
L 335.171545 -59.74848 
L 336.655277 -59.74848 
L 338.139008 -59.74848 
L 339.62274 -59.74848 
L 341.106471 -59.74848 
L 342.590203 -59.74848 
L 344.073934 -59.74848 
L 345.557666 -59.74848 
L 347.041397 -59.74848 
L 348.525129 -59.74848 
L 350.00886 -59.74848 
L 351.492592 -59.74848 
L 352.976323 -59.74848 
L 354.460055 -59.74848 
L 355.943786 -59.74848 
L 357.427518 -59.74848 
L 358.911249 -59.74848 
L 360.394981 -59.74848 
L 361.878712 -59.74848 
L 363.362444 -59.74848 
L 364.846175 -59.74848 
L 366.329907 -59.74848 
L 367.813638 -59.74848 
L 369.29737 -59.74848 
L 370.781101 -59.74848 
L 372.264833 -59.74848 
L 373.748564 -59.74848 
L 375.232296 -59.74848 
L 376.716027 -59.74848 
L 378.199759 -59.74848 
L 379.68349 -59.74848 
L 381.167221 -59.74848 
L 382.650953 -59.74848 
L 384.134684 -59.74848 
L 385.618416 -59.74848 
L 387.102147 -59.74848 
L 388.585879 -59.74848 
L 390.06961 -59.74848 
L 391.553342 -59.74848 
L 393.037073 -59.74848 
L 394.520805 -59.74848 
L 396.004536 -59.74848 
L 397.488268 -59.74848 
L 398.971999 -59.74848 
L 400.455731 -59.74848 
L 401.939462 -59.74848 
L 403.423194 -59.74848 
L 404.906925 -59.74848 
L 406.390657 -59.74848 
L 407.874388 -59.74848 
L 409.35812 -59.74848 
L 410.841851 -59.74848 
L 412.325583 -59.74848 
L 413.809314 -59.74848 
L 415.293046 -59.74848 
L 416.776777 -59.74848 
L 418.260509 -59.74848 
L 419.74424 -59.74848 
L 421.227972 -59.74848 
L 422.711703 -59.74848 
L 424.195435 -59.74848 
L 425.679166 -59.74848 
L 427.162898 -59.74848 
L 428.646629 -59.74848 
L 430.130361 -59.74848 
L 431.614092 -59.74848 
L 433.097824 -59.74848 
L 434.581555 -59.74848 
L 436.065287 -59.74848 
L 437.549018 -59.74848 
L 439.03275 -59.74848 
L 440.516481 -59.74848 
L 442.000212 -59.74848 
L 443.483944 -59.74848 
L 444.967675 -59.74848 
L 446.451407 -59.74848 
L 447.935138 -59.74848 
L 449.41887 -59.74848 
L 450.902601 -59.74848 
L 452.386333 -59.74848 
L 453.870064 -59.74848 
L 455.353796 -59.74848 
L 456.837527 -59.74848 
L 458.321259 -59.74848 
L 459.80499 -59.74848 
L 461.288722 -59.74848 
L 462.772453 -59.74848 
L 464.256185 -59.74848 
L 465.739916 -59.74848 
L 467.223648 -59.74848 
L 468.707379 -59.74848 
L 470.191111 -59.74848 
L 471.674842 -59.74848 
L 473.158574 -59.74848 
L 474.642305 -59.74848 
L 476.126037 -59.74848 
L 477.609768 -59.74848 
L 479.0935 -59.74848 
L 480.577231 -59.74848 
L 482.060963 -59.74848 
L 482.060963 -59.788997 
L 482.060963 -59.788997 
L 480.577231 -59.808339 
L 479.0935 -59.835362 
L 477.609768 -59.872372 
L 476.126037 -59.922051 
L 474.642305 -59.987384 
L 473.158574 -60.071543 
L 471.674842 -60.177688 
L 470.191111 -60.308713 
L 468.707379 -60.466921 
L 467.223648 -60.653668 
L 465.739916 -60.868992 
L 464.256185 -61.111279 
L 462.772453 -61.377007 
L 461.288722 -61.660624 
L 459.80499 -61.954607 
L 458.321259 -62.249717 
L 456.837527 -62.535487 
L 455.353796 -62.800892 
L 453.870064 -63.035189 
L 452.386333 -63.228828 
L 450.902601 -63.374364 
L 449.41887 -63.467265 
L 447.935138 -63.506525 
L 446.451407 -63.495003 
L 444.967675 -63.439448 
L 443.483944 -63.35019 
L 442.000212 -63.240529 
L 440.516481 -63.125872 
L 439.03275 -63.022712 
L 437.549018 -62.94754 
L 436.065287 -62.915804 
L 434.581555 -62.940997 
L 433.097824 -63.033957 
L 431.614092 -63.202428 
L 430.130361 -63.450898 
L 428.646629 -63.780695 
L 427.162898 -64.190319 
L 425.679166 -64.675921 
L 424.195435 -65.231884 
L 422.711703 -65.851396 
L 421.227972 -66.526975 
L 419.74424 -67.250858 
L 418.260509 -68.015255 
L 416.776777 -68.812441 
L 415.293046 -69.634735 
L 413.809314 -70.474408 
L 412.325583 -71.323598 
L 410.841851 -72.174314 
L 409.35812 -73.018593 
L 407.874388 -73.848887 
L 406.390657 -74.658689 
L 404.906925 -75.44341 
L 403.423194 -76.20148 
L 401.939462 -76.935608 
L 400.455731 -77.654113 
L 398.971999 -78.372242 
L 397.488268 -79.113347 
L 396.004536 -79.909817 
L 394.520805 -80.803629 
L 393.037073 -81.8464 
L 391.553342 -83.098805 
L 390.06961 -84.629253 
L 388.585879 -86.511716 
L 387.102147 -88.822656 
L 385.618416 -91.637072 
L 384.134684 -95.023764 
L 382.650953 -99.040042 
L 381.167221 -103.726208 
L 379.68349 -109.100305 
L 378.199759 -115.153652 
L 376.716027 -121.847786 
L 375.232296 -129.113356 
L 373.748564 -136.851419 
L 372.264833 -144.937401 
L 370.781101 -153.227692 
L 369.29737 -161.568571 
L 367.813638 -169.806842 
L 366.329907 -177.801274 
L 364.846175 -185.433782 
L 363.362444 -192.619214 
L 361.878712 -199.312655 
L 360.394981 -205.513405 
L 358.911249 -211.265089 
L 357.427518 -216.651771 
L 355.943786 -221.790403 
L 354.460055 -226.82033 
L 352.976323 -231.89093 
L 351.492592 -237.14866 
L 350.00886 -242.724839 
L 348.525129 -248.725366 
L 347.041397 -255.22334 
L 345.557666 -262.255128 
L 344.073934 -269.820042 
L 342.590203 -277.883315 
L 341.106471 -286.381734 
L 339.62274 -295.231018 
L 338.139008 -304.333939 
L 336.655277 -313.588204 
L 335.171545 -322.893333 
L 333.687814 -332.15598 
L 332.204082 -341.293506 
L 330.720351 -350.235859 
L 329.236619 -358.926054 
L 327.752888 -367.319678 
L 326.269156 -375.383854 
L 324.785425 -383.096026 
L 323.301693 -390.44279 
L 321.817962 -397.418828 
L 320.33423 -404.025876 
L 318.850499 -410.27153 
L 317.366768 -416.167711 
L 315.883036 -421.728601 
L 314.399305 -426.967997 
L 312.915573 -431.896127 
L 311.431842 -436.516099 
L 309.94811 -440.820267 
L 308.464379 -444.786865 
L 306.980647 -448.377296 
L 305.496916 -451.534449 
L 304.013184 -454.182411 
L 302.529453 -456.227833 
L 301.045721 -457.563146 
L 299.56199 -458.07168 
L 298.078258 -457.63457 
L 296.594527 -456.139143 
L 295.110795 -453.488285 
L 293.627064 -449.610056 
L 292.143332 -444.466709 
L 290.659601 -438.062136 
L 289.175869 -430.446837 
L 287.692138 -421.719642 
L 286.208406 -412.025673 
L 284.724675 -401.550439 
L 283.240943 -390.510324 
L 281.757212 -379.140193 
L 280.27348 -367.67914 
L 278.789749 -356.355653 
L 277.306017 -345.373547 
L 275.822286 -334.899928 
L 274.338554 -325.056222 
L 272.854823 -315.912973 
L 271.371091 -307.488707 
L 269.88736 -299.752744 
L 268.403628 -292.63149 
L 266.919897 -286.017413 
L 265.436165 -279.779773 
L 263.952434 -273.776056 
L 262.468702 -267.863128 
L 260.984971 -261.907251 
L 259.501239 -255.7923 
L 258.017508 -249.425768 
L 256.533776 -242.742375 
L 255.050045 -235.705377 
L 253.566314 -228.305804 
L 252.082582 -220.560049 
L 250.598851 -212.506249 
L 249.115119 -204.199964 
L 247.631388 -195.70956 
L 246.147656 -187.111656 
L 244.663925 -178.48689 
L 243.180193 -169.916146 
L 241.696462 -161.477323 
L 240.21273 -153.242672 
L 238.728999 -145.276674 
L 237.245267 -137.63446 
L 235.761536 -130.360767 
L 234.277804 -123.489407 
L 232.794073 -117.043262 
L 231.310341 -111.034779 
L 229.82661 -105.466906 
L 228.342878 -100.334408 
L 226.859147 -95.625429 
L 225.375415 -91.323176 
L 223.891684 -87.407577 
L 222.407952 -83.856786 
L 220.924221 -80.648414 
L 219.440489 -77.760444 
L 217.956758 -75.171799 
L 216.473026 -72.862575 
L 214.989295 -70.814033 
L 213.505563 -69.008387 
L 212.021832 -67.428513 
L 210.5381 -66.057639 
L 209.054369 -64.879096 
L 207.570637 -63.876164 
L 206.086906 -63.032039 
L 204.603174 -62.329919 
L 203.119443 -61.753179 
L 201.635711 -61.285621 
L 200.15198 -60.911739 
L 198.668248 -60.616984 
L 197.184517 -60.38799 
L 195.700785 -60.212741 
L 194.217054 -60.08067 
L 192.733323 -59.982688 
L 191.249591 -59.911147 
L 189.76586 -59.85975 
L 188.282128 -59.823425 
L 186.798397 -59.798175 
z
" style="stroke: #0000ff"/>
    </defs>
    <g clip-path="url(#pf7a44a828d)">
     <use xlink:href="#mdc43f594f5" x="0" y="543.168" style="fill: #0000ff; fill-opacity: 0.5; stroke: #0000ff"/>
    </g>
   </g>
   <g id="FillBetweenPolyCollection_2">
    <defs>
     <path id="m83537c03f9" d="M 177.198545 -59.816566 
L 177.198545 -59.74848 
L 181.113977 -59.74848 
L 185.029409 -59.74848 
L 188.944841 -59.74848 
L 192.860272 -59.74848 
L 196.775704 -59.74848 
L 200.691136 -59.74848 
L 204.606567 -59.74848 
L 208.521999 -59.74848 
L 212.437431 -59.74848 
L 216.352862 -59.74848 
L 220.268294 -59.74848 
L 224.183726 -59.74848 
L 228.099158 -59.74848 
L 232.014589 -59.74848 
L 235.930021 -59.74848 
L 239.845453 -59.74848 
L 243.760884 -59.74848 
L 247.676316 -59.74848 
L 251.591748 -59.74848 
L 255.50718 -59.74848 
L 259.422611 -59.74848 
L 263.338043 -59.74848 
L 267.253475 -59.74848 
L 271.168906 -59.74848 
L 275.084338 -59.74848 
L 278.99977 -59.74848 
L 282.915201 -59.74848 
L 286.830633 -59.74848 
L 290.746065 -59.74848 
L 294.661497 -59.74848 
L 298.576928 -59.74848 
L 302.49236 -59.74848 
L 306.407792 -59.74848 
L 310.323223 -59.74848 
L 314.238655 -59.74848 
L 318.154087 -59.74848 
L 322.069519 -59.74848 
L 325.98495 -59.74848 
L 329.900382 -59.74848 
L 333.815814 -59.74848 
L 337.731245 -59.74848 
L 341.646677 -59.74848 
L 345.562109 -59.74848 
L 349.47754 -59.74848 
L 353.392972 -59.74848 
L 357.308404 -59.74848 
L 361.223836 -59.74848 
L 365.139267 -59.74848 
L 369.054699 -59.74848 
L 372.970131 -59.74848 
L 376.885562 -59.74848 
L 380.800994 -59.74848 
L 384.716426 -59.74848 
L 388.631857 -59.74848 
L 392.547289 -59.74848 
L 396.462721 -59.74848 
L 400.378153 -59.74848 
L 404.293584 -59.74848 
L 408.209016 -59.74848 
L 412.124448 -59.74848 
L 416.039879 -59.74848 
L 419.955311 -59.74848 
L 423.870743 -59.74848 
L 427.786175 -59.74848 
L 431.701606 -59.74848 
L 435.617038 -59.74848 
L 439.53247 -59.74848 
L 443.447901 -59.74848 
L 447.363333 -59.74848 
L 451.278765 -59.74848 
L 455.194196 -59.74848 
L 459.109628 -59.74848 
L 463.02506 -59.74848 
L 466.940492 -59.74848 
L 470.855923 -59.74848 
L 474.771355 -59.74848 
L 478.686787 -59.74848 
L 482.602218 -59.74848 
L 486.51765 -59.74848 
L 490.433082 -59.74848 
L 494.348513 -59.74848 
L 498.263945 -59.74848 
L 502.179377 -59.74848 
L 506.094809 -59.74848 
L 510.01024 -59.74848 
L 513.925672 -59.74848 
L 517.841104 -59.74848 
L 521.756535 -59.74848 
L 525.671967 -59.74848 
L 529.587399 -59.74848 
L 533.502831 -59.74848 
L 537.418262 -59.74848 
L 541.333694 -59.74848 
L 545.249126 -59.74848 
L 549.164557 -59.74848 
L 553.079989 -59.74848 
L 556.995421 -59.74848 
L 560.910852 -59.74848 
L 564.826284 -59.74848 
L 568.741716 -59.74848 
L 572.657148 -59.74848 
L 576.572579 -59.74848 
L 580.488011 -59.74848 
L 584.403443 -59.74848 
L 588.318874 -59.74848 
L 592.234306 -59.74848 
L 596.149738 -59.74848 
L 600.065169 -59.74848 
L 603.980601 -59.74848 
L 607.896033 -59.74848 
L 611.811465 -59.74848 
L 615.726896 -59.74848 
L 619.642328 -59.74848 
L 623.55776 -59.74848 
L 627.473191 -59.74848 
L 631.388623 -59.74848 
L 635.304055 -59.74848 
L 639.219487 -59.74848 
L 643.134918 -59.74848 
L 647.05035 -59.74848 
L 650.965782 -59.74848 
L 654.881213 -59.74848 
L 658.796645 -59.74848 
L 662.712077 -59.74848 
L 666.627508 -59.74848 
L 670.54294 -59.74848 
L 674.458372 -59.74848 
L 678.373804 -59.74848 
L 682.289235 -59.74848 
L 686.204667 -59.74848 
L 690.120099 -59.74848 
L 694.03553 -59.74848 
L 697.950962 -59.74848 
L 701.866394 -59.74848 
L 705.781825 -59.74848 
L 709.697257 -59.74848 
L 713.612689 -59.74848 
L 717.528121 -59.74848 
L 721.443552 -59.74848 
L 725.358984 -59.74848 
L 729.274416 -59.74848 
L 733.189847 -59.74848 
L 737.105279 -59.74848 
L 741.020711 -59.74848 
L 744.936143 -59.74848 
L 748.851574 -59.74848 
L 752.767006 -59.74848 
L 756.682438 -59.74848 
L 760.597869 -59.74848 
L 764.513301 -59.74848 
L 768.428733 -59.74848 
L 772.344164 -59.74848 
L 776.259596 -59.74848 
L 780.175028 -59.74848 
L 784.09046 -59.74848 
L 788.005891 -59.74848 
L 791.921323 -59.74848 
L 795.836755 -59.74848 
L 799.752186 -59.74848 
L 803.667618 -59.74848 
L 807.58305 -59.74848 
L 811.498481 -59.74848 
L 815.413913 -59.74848 
L 819.329345 -59.74848 
L 823.244777 -59.74848 
L 827.160208 -59.74848 
L 831.07564 -59.74848 
L 834.991072 -59.74848 
L 838.906503 -59.74848 
L 842.821935 -59.74848 
L 846.737367 -59.74848 
L 850.652799 -59.74848 
L 854.56823 -59.74848 
L 858.483662 -59.74848 
L 862.399094 -59.74848 
L 866.314525 -59.74848 
L 870.229957 -59.74848 
L 874.145389 -59.74848 
L 878.06082 -59.74848 
L 881.976252 -59.74848 
L 885.891684 -59.74848 
L 889.807116 -59.74848 
L 893.722547 -59.74848 
L 897.637979 -59.74848 
L 901.553411 -59.74848 
L 905.468842 -59.74848 
L 909.384274 -59.74848 
L 913.299706 -59.74848 
L 917.215138 -59.74848 
L 921.130569 -59.74848 
L 925.046001 -59.74848 
L 928.961433 -59.74848 
L 932.876864 -59.74848 
L 936.792296 -59.74848 
L 940.707728 -59.74848 
L 944.623159 -59.74848 
L 948.538591 -59.74848 
L 952.454023 -59.74848 
L 956.369455 -59.74848 
L 956.369455 -59.792316 
L 956.369455 -59.792316 
L 952.454023 -59.810105 
L 948.538591 -59.833967 
L 944.623159 -59.865502 
L 940.707728 -59.906551 
L 936.792296 -59.959177 
L 932.876864 -60.025614 
L 928.961433 -60.108188 
L 925.046001 -60.209206 
L 921.130569 -60.330815 
L 917.215138 -60.474832 
L 913.299706 -60.642555 
L 909.384274 -60.834564 
L 905.468842 -61.050533 
L 901.553411 -61.289066 
L 897.637979 -61.547582 
L 893.722547 -61.822264 
L 889.807116 -62.108096 
L 885.891684 -62.398988 
L 881.976252 -62.688004 
L 878.06082 -62.967674 
L 874.145389 -63.230384 
L 870.229957 -63.468813 
L 866.314525 -63.676382 
L 862.399094 -63.847675 
L 858.483662 -63.978802 
L 854.56823 -64.067655 
L 850.652799 -64.11404 
L 846.737367 -64.119666 
L 842.821935 -64.087989 
L 838.906503 -64.023929 
L 834.991072 -63.933472 
L 831.07564 -63.823225 
L 827.160208 -63.699932 
L 823.244777 -63.570026 
L 819.329345 -63.439248 
L 815.413913 -63.312363 
L 811.498481 -63.193005 
L 807.58305 -63.083647 
L 803.667618 -62.985697 
L 799.752186 -62.899699 
L 795.836755 -62.825596 
L 791.921323 -62.763039 
L 788.005891 -62.711681 
L 784.09046 -62.671443 
L 780.175028 -62.642711 
L 776.259596 -62.626449 
L 772.344164 -62.62423 
L 768.428733 -62.638186 
L 764.513301 -62.670886 
L 760.597869 -62.725181 
L 756.682438 -62.80402 
L 752.767006 -62.910274 
L 748.851574 -63.04659 
L 744.936143 -63.215281 
L 741.020711 -63.418259 
L 737.105279 -63.657018 
L 733.189847 -63.932652 
L 729.274416 -64.245892 
L 725.358984 -64.597154 
L 721.443552 -64.98657 
L 717.528121 -65.414 
L 713.612689 -65.879008 
L 709.697257 -66.380796 
L 705.781825 -66.918108 
L 701.866394 -67.489103 
L 697.950962 -68.091222 
L 694.03553 -68.721059 
L 690.120099 -69.374272 
L 686.204667 -70.045548 
L 682.289235 -70.728648 
L 678.373804 -71.416556 
L 674.458372 -72.101737 
L 670.54294 -72.776517 
L 666.627508 -73.433563 
L 662.712077 -74.066468 
L 658.796645 -74.670386 
L 654.881213 -75.242691 
L 650.965782 -75.783611 
L 647.05035 -76.29678 
L 643.134918 -76.789663 
L 639.219487 -77.273812 
L 635.304055 -77.764915 
L 631.388623 -78.282641 
L 627.473191 -78.850255 
L 623.55776 -79.49405 
L 619.642328 -80.24261 
L 615.726896 -81.125957 
L 611.811465 -82.174621 
L 607.896033 -83.418677 
L 603.980601 -84.886788 
L 600.065169 -86.605279 
L 596.149738 -88.597254 
L 592.234306 -90.881762 
L 588.318874 -93.473014 
L 584.403443 -96.379644 
L 580.488011 -99.604039 
L 576.572579 -103.141726 
L 572.657148 -106.980881 
L 568.741716 -111.101974 
L 564.826284 -115.477627 
L 560.910852 -120.072726 
L 556.995421 -124.844848 
L 553.079989 -129.745033 
L 549.164557 -134.718926 
L 545.249126 -139.708258 
L 541.333694 -144.652633 
L 537.418262 -149.491536 
L 533.502831 -154.166456 
L 529.587399 -158.623 
L 525.671967 -162.812878 
L 521.756535 -166.695612 
L 517.841104 -170.239887 
L 513.925672 -173.424434 
L 510.01024 -176.23842 
L 506.094809 -178.681316 
L 502.179377 -180.762288 
L 498.263945 -182.499157 
L 494.348513 -183.91704 
L 490.433082 -185.046769 
L 486.51765 -185.923221 
L 482.602218 -186.58368 
L 478.686787 -187.066334 
L 474.771355 -187.409005 
L 470.855923 -187.648156 
L 466.940492 -187.818212 
L 463.02506 -187.951167 
L 459.109628 -188.076432 
L 455.194196 -188.220849 
L 451.278765 -188.408775 
L 447.363333 -188.662134 
L 443.447901 -189.000335 
L 439.53247 -189.440017 
L 435.617038 -189.994537 
L 431.701606 -190.673261 
L 427.786175 -191.48065 
L 423.870743 -192.415276 
L 419.955311 -193.468851 
L 416.039879 -194.625414 
L 412.124448 -195.860809 
L 408.209016 -197.142545 
L 404.293584 -198.430149 
L 400.378153 -199.676003 
L 396.462721 -200.826682 
L 392.547289 -201.824713 
L 388.631857 -202.61064 
L 384.716426 -203.125284 
L 380.800994 -203.312032 
L 376.885562 -203.119029 
L 372.970131 -202.501129 
L 369.054699 -201.421529 
L 365.139267 -199.853009 
L 361.223836 -197.778753 
L 357.308404 -195.192756 
L 353.392972 -192.099835 
L 349.47754 -188.515302 
L 345.562109 -184.46433 
L 341.646677 -179.98108 
L 337.731245 -175.107632 
L 333.815814 -169.892752 
L 329.900382 -164.390561 
L 325.98495 -158.659107 
L 322.069519 -152.758906 
L 318.154087 -146.75147 
L 314.238655 -140.697868 
L 310.323223 -134.65737 
L 306.407792 -128.686201 
L 302.49236 -122.836455 
L 298.576928 -117.155204 
L 294.661497 -111.683814 
L 290.746065 -106.457486 
L 286.830633 -101.50502 
L 282.915201 -96.848783 
L 278.99977 -92.50486 
L 275.084338 -88.48335 
L 271.168906 -84.788789 
L 267.253475 -81.420639 
L 263.338043 -78.373843 
L 259.422611 -75.639399 
L 255.50718 -73.204946 
L 251.591748 -71.055343 
L 247.676316 -69.17324 
L 243.760884 -67.539619 
L 239.845453 -66.134327 
L 235.930021 -64.936568 
L 232.014589 -63.925369 
L 228.099158 -63.080002 
L 224.183726 -62.380368 
L 220.268294 -61.807312 
L 216.352862 -61.342896 
L 212.437431 -60.970596 
L 208.521999 -60.675441 
L 204.606567 -60.444084 
L 200.691136 -60.264815 
L 196.775704 -60.127527 
L 192.860272 -60.023635 
L 188.944841 -59.945956 
L 185.029409 -59.888582 
L 181.113977 -59.846725 
L 177.198545 -59.816566 
z
" style="stroke: #ff0000"/>
    </defs>
    <g clip-path="url(#pf7a44a828d)">
     <use xlink:href="#m83537c03f9" x="0" y="543.168" style="fill: #ff0000; fill-opacity: 0.5; stroke: #ff0000"/>
    </g>
   </g>
   <g id="matplotlib.axis_1">
    <g id="xtick_1">
     <g id="line2d_1">
      <defs>
       <path id="mb77c3a608c" d="M 0 0 
L 0 3.5 
" style="stroke: #000000; stroke-width: 0.8"/>
      </defs>
      <g>
       <use xlink:href="#mb77c3a608c" x="181.643596" y="483.41952" style="stroke: #000000; stroke-width: 0.8"/>
      </g>
     </g>
     <g id="text_1">
      <!-- 0 -->
      <g transform="translate(178.462346 498.017958) scale(0.1 -0.1)">
       <defs>
        <path id="DejaVuSans-30" d="M 2034 4250 
Q 1547 4250 1301 3770 
Q 1056 3291 1056 2328 
Q 1056 1369 1301 889 
Q 1547 409 2034 409 
Q 2525 409 2770 889 
Q 3016 1369 3016 2328 
Q 3016 3291 2770 3770 
Q 2525 4250 2034 4250 
z
M 2034 4750 
Q 2819 4750 3233 4129 
Q 3647 3509 3647 2328 
Q 3647 1150 3233 529 
Q 2819 -91 2034 -91 
Q 1250 -91 836 529 
Q 422 1150 422 2328 
Q 422 3509 836 4129 
Q 1250 4750 2034 4750 
z
" transform="scale(0.015625)"/>
       </defs>
       <use xlink:href="#DejaVuSans-30"/>
      </g>
     </g>
    </g>
    <g id="xtick_2">
     <g id="line2d_2">
      <g>
       <use xlink:href="#mb77c3a608c" x="316.185762" y="483.41952" style="stroke: #000000; stroke-width: 0.8"/>
      </g>
     </g>
     <g id="text_2">
      <!-- 500 -->
      <g transform="translate(306.642012 498.017958) scale(0.1 -0.1)">
       <defs>
        <path id="DejaVuSans-35" d="M 691 4666 
L 3169 4666 
L 3169 4134 
L 1269 4134 
L 1269 2991 
Q 1406 3038 1543 3061 
Q 1681 3084 1819 3084 
Q 2600 3084 3056 2656 
Q 3513 2228 3513 1497 
Q 3513 744 3044 326 
Q 2575 -91 1722 -91 
Q 1428 -91 1123 -41 
Q 819 9 494 109 
L 494 744 
Q 775 591 1075 516 
Q 1375 441 1709 441 
Q 2250 441 2565 725 
Q 2881 1009 2881 1497 
Q 2881 1984 2565 2268 
Q 2250 2553 1709 2553 
Q 1456 2553 1204 2497 
Q 953 2441 691 2322 
L 691 4666 
z
" transform="scale(0.015625)"/>
       </defs>
       <use xlink:href="#DejaVuSans-35"/>
       <use xlink:href="#DejaVuSans-30" transform="translate(63.623047 0)"/>
       <use xlink:href="#DejaVuSans-30" transform="translate(127.246094 0)"/>
      </g>
     </g>
    </g>
    <g id="xtick_3">
     <g id="line2d_3">
      <g>
       <use xlink:href="#mb77c3a608c" x="450.727928" y="483.41952" style="stroke: #000000; stroke-width: 0.8"/>
      </g>
     </g>
     <g id="text_3">
      <!-- 1000 -->
      <g transform="translate(438.002928 498.017958) scale(0.1 -0.1)">
       <defs>
        <path id="DejaVuSans-31" d="M 794 531 
L 1825 531 
L 1825 4091 
L 703 3866 
L 703 4441 
L 1819 4666 
L 2450 4666 
L 2450 531 
L 3481 531 
L 3481 0 
L 794 0 
L 794 531 
z
" transform="scale(0.015625)"/>
       </defs>
       <use xlink:href="#DejaVuSans-31"/>
       <use xlink:href="#DejaVuSans-30" transform="translate(63.623047 0)"/>
       <use xlink:href="#DejaVuSans-30" transform="translate(127.246094 0)"/>
       <use xlink:href="#DejaVuSans-30" transform="translate(190.869141 0)"/>
      </g>
     </g>
    </g>
    <g id="xtick_4">
     <g id="line2d_4">
      <g>
       <use xlink:href="#mb77c3a608c" x="585.270094" y="483.41952" style="stroke: #000000; stroke-width: 0.8"/>
      </g>
     </g>
     <g id="text_4">
      <!-- 1500 -->
      <g transform="translate(572.545094 498.017958) scale(0.1 -0.1)">
       <use xlink:href="#DejaVuSans-31"/>
       <use xlink:href="#DejaVuSans-35" transform="translate(63.623047 0)"/>
       <use xlink:href="#DejaVuSans-30" transform="translate(127.246094 0)"/>
       <use xlink:href="#DejaVuSans-30" transform="translate(190.869141 0)"/>
      </g>
     </g>
    </g>
    <g id="xtick_5">
     <g id="line2d_5">
      <g>
       <use xlink:href="#mb77c3a608c" x="719.812259" y="483.41952" style="stroke: #000000; stroke-width: 0.8"/>
      </g>
     </g>
     <g id="text_5">
      <!-- 2000 -->
      <g transform="translate(707.087259 498.017958) scale(0.1 -0.1)">
       <defs>
        <path id="DejaVuSans-32" d="M 1228 531 
L 3431 531 
L 3431 0 
L 469 0 
L 469 531 
Q 828 903 1448 1529 
Q 2069 2156 2228 2338 
Q 2531 2678 2651 2914 
Q 2772 3150 2772 3378 
Q 2772 3750 2511 3984 
Q 2250 4219 1831 4219 
Q 1534 4219 1204 4116 
Q 875 4013 500 3803 
L 500 4441 
Q 881 4594 1212 4672 
Q 1544 4750 1819 4750 
Q 2544 4750 2975 4387 
Q 3406 4025 3406 3419 
Q 3406 3131 3298 2873 
Q 3191 2616 2906 2266 
Q 2828 2175 2409 1742 
Q 1991 1309 1228 531 
z
" transform="scale(0.015625)"/>
       </defs>
       <use xlink:href="#DejaVuSans-32"/>
       <use xlink:href="#DejaVuSans-30" transform="translate(63.623047 0)"/>
       <use xlink:href="#DejaVuSans-30" transform="translate(127.246094 0)"/>
       <use xlink:href="#DejaVuSans-30" transform="translate(190.869141 0)"/>
      </g>
     </g>
    </g>
    <g id="xtick_6">
     <g id="line2d_6">
      <g>
       <use xlink:href="#mb77c3a608c" x="854.354425" y="483.41952" style="stroke: #000000; stroke-width: 0.8"/>
      </g>
     </g>
     <g id="text_6">
      <!-- 2500 -->
      <g transform="translate(841.629425 498.017958) scale(0.1 -0.1)">
       <use xlink:href="#DejaVuSans-32"/>
       <use xlink:href="#DejaVuSans-35" transform="translate(63.623047 0)"/>
       <use xlink:href="#DejaVuSans-30" transform="translate(127.246094 0)"/>
       <use xlink:href="#DejaVuSans-30" transform="translate(190.869141 0)"/>
      </g>
     </g>
    </g>
    <g id="xtick_7">
     <g id="line2d_7">
      <g>
       <use xlink:href="#mb77c3a608c" x="988.896591" y="483.41952" style="stroke: #000000; stroke-width: 0.8"/>
      </g>
     </g>
     <g id="text_7">
      <!-- 3000 -->
      <g transform="translate(976.171591 498.017958) scale(0.1 -0.1)">
       <defs>
        <path id="DejaVuSans-33" d="M 2597 2516 
Q 3050 2419 3304 2112 
Q 3559 1806 3559 1356 
Q 3559 666 3084 287 
Q 2609 -91 1734 -91 
Q 1441 -91 1130 -33 
Q 819 25 488 141 
L 488 750 
Q 750 597 1062 519 
Q 1375 441 1716 441 
Q 2309 441 2620 675 
Q 2931 909 2931 1356 
Q 2931 1769 2642 2001 
Q 2353 2234 1838 2234 
L 1294 2234 
L 1294 2753 
L 1863 2753 
Q 2328 2753 2575 2939 
Q 2822 3125 2822 3475 
Q 2822 3834 2567 4026 
Q 2313 4219 1838 4219 
Q 1578 4219 1281 4162 
Q 984 4106 628 3988 
L 628 4550 
Q 988 4650 1302 4700 
Q 1616 4750 1894 4750 
Q 2613 4750 3031 4423 
Q 3450 4097 3450 3541 
Q 3450 3153 3228 2886 
Q 3006 2619 2597 2516 
z
" transform="scale(0.015625)"/>
       </defs>
       <use xlink:href="#DejaVuSans-33"/>
       <use xlink:href="#DejaVuSans-30" transform="translate(63.623047 0)"/>
       <use xlink:href="#DejaVuSans-30" transform="translate(127.246094 0)"/>
       <use xlink:href="#DejaVuSans-30" transform="translate(190.869141 0)"/>
      </g>
     </g>
    </g>
    <g id="text_8">
     <!-- Area Mean -->
     <g transform="translate(540.067594 511.696082) scale(0.1 -0.1)">
      <defs>
       <path id="DejaVuSans-41" d="M 2188 4044 
L 1331 1722 
L 3047 1722 
L 2188 4044 
z
M 1831 4666 
L 2547 4666 
L 4325 0 
L 3669 0 
L 3244 1197 
L 1141 1197 
L 716 0 
L 50 0 
L 1831 4666 
z
" transform="scale(0.015625)"/>
       <path id="DejaVuSans-72" d="M 2631 2963 
Q 2534 3019 2420 3045 
Q 2306 3072 2169 3072 
Q 1681 3072 1420 2755 
Q 1159 2438 1159 1844 
L 1159 0 
L 581 0 
L 581 3500 
L 1159 3500 
L 1159 2956 
Q 1341 3275 1631 3429 
Q 1922 3584 2338 3584 
Q 2397 3584 2469 3576 
Q 2541 3569 2628 3553 
L 2631 2963 
z
" transform="scale(0.015625)"/>
       <path id="DejaVuSans-65" d="M 3597 1894 
L 3597 1613 
L 953 1613 
Q 991 1019 1311 708 
Q 1631 397 2203 397 
Q 2534 397 2845 478 
Q 3156 559 3463 722 
L 3463 178 
Q 3153 47 2828 -22 
Q 2503 -91 2169 -91 
Q 1331 -91 842 396 
Q 353 884 353 1716 
Q 353 2575 817 3079 
Q 1281 3584 2069 3584 
Q 2775 3584 3186 3129 
Q 3597 2675 3597 1894 
z
M 3022 2063 
Q 3016 2534 2758 2815 
Q 2500 3097 2075 3097 
Q 1594 3097 1305 2825 
Q 1016 2553 972 2059 
L 3022 2063 
z
" transform="scale(0.015625)"/>
       <path id="DejaVuSans-61" d="M 2194 1759 
Q 1497 1759 1228 1600 
Q 959 1441 959 1056 
Q 959 750 1161 570 
Q 1363 391 1709 391 
Q 2188 391 2477 730 
Q 2766 1069 2766 1631 
L 2766 1759 
L 2194 1759 
z
M 3341 1997 
L 3341 0 
L 2766 0 
L 2766 531 
Q 2569 213 2275 61 
Q 1981 -91 1556 -91 
Q 1019 -91 701 211 
Q 384 513 384 1019 
Q 384 1609 779 1909 
Q 1175 2209 1959 2209 
L 2766 2209 
L 2766 2266 
Q 2766 2663 2505 2880 
Q 2244 3097 1772 3097 
Q 1472 3097 1187 3025 
Q 903 2953 641 2809 
L 641 3341 
Q 956 3463 1253 3523 
Q 1550 3584 1831 3584 
Q 2591 3584 2966 3190 
Q 3341 2797 3341 1997 
z
" transform="scale(0.015625)"/>
       <path id="DejaVuSans-20" transform="scale(0.015625)"/>
       <path id="DejaVuSans-4d" d="M 628 4666 
L 1569 4666 
L 2759 1491 
L 3956 4666 
L 4897 4666 
L 4897 0 
L 4281 0 
L 4281 4097 
L 3078 897 
L 2444 897 
L 1241 4097 
L 1241 0 
L 628 0 
L 628 4666 
z
" transform="scale(0.015625)"/>
       <path id="DejaVuSans-6e" d="M 3513 2113 
L 3513 0 
L 2938 0 
L 2938 2094 
Q 2938 2591 2744 2837 
Q 2550 3084 2163 3084 
Q 1697 3084 1428 2787 
Q 1159 2491 1159 1978 
L 1159 0 
L 581 0 
L 581 3500 
L 1159 3500 
L 1159 2956 
Q 1366 3272 1645 3428 
Q 1925 3584 2291 3584 
Q 2894 3584 3203 3211 
Q 3513 2838 3513 2113 
z
" transform="scale(0.015625)"/>
      </defs>
      <use xlink:href="#DejaVuSans-41"/>
      <use xlink:href="#DejaVuSans-72" transform="translate(68.408203 0)"/>
      <use xlink:href="#DejaVuSans-65" transform="translate(107.271484 0)"/>
      <use xlink:href="#DejaVuSans-61" transform="translate(168.794922 0)"/>
      <use xlink:href="#DejaVuSans-20" transform="translate(230.074219 0)"/>
      <use xlink:href="#DejaVuSans-4d" transform="translate(261.861328 0)"/>
      <use xlink:href="#DejaVuSans-65" transform="translate(348.140625 0)"/>
      <use xlink:href="#DejaVuSans-61" transform="translate(409.664062 0)"/>
      <use xlink:href="#DejaVuSans-6e" transform="translate(470.943359 0)"/>
     </g>
    </g>
   </g>
   <g id="matplotlib.axis_2">
    <g id="ytick_1">
     <g id="line2d_8">
      <defs>
       <path id="m1a4c2c009b" d="M 0 0 
L -3.5 0 
" style="stroke: #000000; stroke-width: 0.8"/>
      </defs>
      <g>
       <use xlink:href="#m1a4c2c009b" x="138.24" y="483.41952" style="stroke: #000000; stroke-width: 0.8"/>
      </g>
     </g>
     <g id="text_9">
      <!-- 0.0000 -->
      <g transform="translate(96.249375 487.218739) scale(0.1 -0.1)">
       <defs>
        <path id="DejaVuSans-2e" d="M 684 794 
L 1344 794 
L 1344 0 
L 684 0 
L 684 794 
z
" transform="scale(0.015625)"/>
       </defs>
       <use xlink:href="#DejaVuSans-30"/>
       <use xlink:href="#DejaVuSans-2e" transform="translate(63.623047 0)"/>
       <use xlink:href="#DejaVuSans-30" transform="translate(95.410156 0)"/>
       <use xlink:href="#DejaVuSans-30" transform="translate(159.033203 0)"/>
       <use xlink:href="#DejaVuSans-30" transform="translate(222.65625 0)"/>
       <use xlink:href="#DejaVuSans-30" transform="translate(286.279297 0)"/>
      </g>
     </g>
    </g>
    <g id="ytick_2">
     <g id="line2d_9">
      <g>
       <use xlink:href="#m1a4c2c009b" x="138.24" y="415.781811" style="stroke: #000000; stroke-width: 0.8"/>
      </g>
     </g>
     <g id="text_10">
      <!-- 0.0005 -->
      <g transform="translate(96.249375 419.58103) scale(0.1 -0.1)">
       <use xlink:href="#DejaVuSans-30"/>
       <use xlink:href="#DejaVuSans-2e" transform="translate(63.623047 0)"/>
       <use xlink:href="#DejaVuSans-30" transform="translate(95.410156 0)"/>
       <use xlink:href="#DejaVuSans-30" transform="translate(159.033203 0)"/>
       <use xlink:href="#DejaVuSans-30" transform="translate(222.65625 0)"/>
       <use xlink:href="#DejaVuSans-35" transform="translate(286.279297 0)"/>
      </g>
     </g>
    </g>
    <g id="ytick_3">
     <g id="line2d_10">
      <g>
       <use xlink:href="#m1a4c2c009b" x="138.24" y="348.144103" style="stroke: #000000; stroke-width: 0.8"/>
      </g>
     </g>
     <g id="text_11">
      <!-- 0.0010 -->
      <g transform="translate(96.249375 351.943322) scale(0.1 -0.1)">
       <use xlink:href="#DejaVuSans-30"/>
       <use xlink:href="#DejaVuSans-2e" transform="translate(63.623047 0)"/>
       <use xlink:href="#DejaVuSans-30" transform="translate(95.410156 0)"/>
       <use xlink:href="#DejaVuSans-30" transform="translate(159.033203 0)"/>
       <use xlink:href="#DejaVuSans-31" transform="translate(222.65625 0)"/>
       <use xlink:href="#DejaVuSans-30" transform="translate(286.279297 0)"/>
      </g>
     </g>
    </g>
    <g id="ytick_4">
     <g id="line2d_11">
      <g>
       <use xlink:href="#m1a4c2c009b" x="138.24" y="280.506394" style="stroke: #000000; stroke-width: 0.8"/>
      </g>
     </g>
     <g id="text_12">
      <!-- 0.0015 -->
      <g transform="translate(96.249375 284.305613) scale(0.1 -0.1)">
       <use xlink:href="#DejaVuSans-30"/>
       <use xlink:href="#DejaVuSans-2e" transform="translate(63.623047 0)"/>
       <use xlink:href="#DejaVuSans-30" transform="translate(95.410156 0)"/>
       <use xlink:href="#DejaVuSans-30" transform="translate(159.033203 0)"/>
       <use xlink:href="#DejaVuSans-31" transform="translate(222.65625 0)"/>
       <use xlink:href="#DejaVuSans-35" transform="translate(286.279297 0)"/>
      </g>
     </g>
    </g>
    <g id="ytick_5">
     <g id="line2d_12">
      <g>
       <use xlink:href="#m1a4c2c009b" x="138.24" y="212.868686" style="stroke: #000000; stroke-width: 0.8"/>
      </g>
     </g>
     <g id="text_13">
      <!-- 0.0020 -->
      <g transform="translate(96.249375 216.667905) scale(0.1 -0.1)">
       <use xlink:href="#DejaVuSans-30"/>
       <use xlink:href="#DejaVuSans-2e" transform="translate(63.623047 0)"/>
       <use xlink:href="#DejaVuSans-30" transform="translate(95.410156 0)"/>
       <use xlink:href="#DejaVuSans-30" transform="translate(159.033203 0)"/>
       <use xlink:href="#DejaVuSans-32" transform="translate(222.65625 0)"/>
       <use xlink:href="#DejaVuSans-30" transform="translate(286.279297 0)"/>
      </g>
     </g>
    </g>
    <g id="ytick_6">
     <g id="line2d_13">
      <g>
       <use xlink:href="#m1a4c2c009b" x="138.24" y="145.230977" style="stroke: #000000; stroke-width: 0.8"/>
      </g>
     </g>
     <g id="text_14">
      <!-- 0.0025 -->
      <g transform="translate(96.249375 149.030196) scale(0.1 -0.1)">
       <use xlink:href="#DejaVuSans-30"/>
       <use xlink:href="#DejaVuSans-2e" transform="translate(63.623047 0)"/>
       <use xlink:href="#DejaVuSans-30" transform="translate(95.410156 0)"/>
       <use xlink:href="#DejaVuSans-30" transform="translate(159.033203 0)"/>
       <use xlink:href="#DejaVuSans-32" transform="translate(222.65625 0)"/>
       <use xlink:href="#DejaVuSans-35" transform="translate(286.279297 0)"/>
      </g>
     </g>
    </g>
    <g id="ytick_7">
     <g id="line2d_14">
      <g>
       <use xlink:href="#m1a4c2c009b" x="138.24" y="77.593269" style="stroke: #000000; stroke-width: 0.8"/>
      </g>
     </g>
     <g id="text_15">
      <!-- 0.0030 -->
      <g transform="translate(96.249375 81.392487) scale(0.1 -0.1)">
       <use xlink:href="#DejaVuSans-30"/>
       <use xlink:href="#DejaVuSans-2e" transform="translate(63.623047 0)"/>
       <use xlink:href="#DejaVuSans-30" transform="translate(95.410156 0)"/>
       <use xlink:href="#DejaVuSans-30" transform="translate(159.033203 0)"/>
       <use xlink:href="#DejaVuSans-33" transform="translate(222.65625 0)"/>
       <use xlink:href="#DejaVuSans-30" transform="translate(286.279297 0)"/>
      </g>
     </g>
    </g>
    <g id="text_16">
     <!-- Density -->
     <g transform="translate(90.169688 293.308434) rotate(-90) scale(0.1 -0.1)">
      <defs>
       <path id="DejaVuSans-44" d="M 1259 4147 
L 1259 519 
L 2022 519 
Q 2988 519 3436 956 
Q 3884 1394 3884 2338 
Q 3884 3275 3436 3711 
Q 2988 4147 2022 4147 
L 1259 4147 
z
M 628 4666 
L 1925 4666 
Q 3281 4666 3915 4102 
Q 4550 3538 4550 2338 
Q 4550 1131 3912 565 
Q 3275 0 1925 0 
L 628 0 
L 628 4666 
z
" transform="scale(0.015625)"/>
       <path id="DejaVuSans-73" d="M 2834 3397 
L 2834 2853 
Q 2591 2978 2328 3040 
Q 2066 3103 1784 3103 
Q 1356 3103 1142 2972 
Q 928 2841 928 2578 
Q 928 2378 1081 2264 
Q 1234 2150 1697 2047 
L 1894 2003 
Q 2506 1872 2764 1633 
Q 3022 1394 3022 966 
Q 3022 478 2636 193 
Q 2250 -91 1575 -91 
Q 1294 -91 989 -36 
Q 684 19 347 128 
L 347 722 
Q 666 556 975 473 
Q 1284 391 1588 391 
Q 1994 391 2212 530 
Q 2431 669 2431 922 
Q 2431 1156 2273 1281 
Q 2116 1406 1581 1522 
L 1381 1569 
Q 847 1681 609 1914 
Q 372 2147 372 2553 
Q 372 3047 722 3315 
Q 1072 3584 1716 3584 
Q 2034 3584 2315 3537 
Q 2597 3491 2834 3397 
z
" transform="scale(0.015625)"/>
       <path id="DejaVuSans-69" d="M 603 3500 
L 1178 3500 
L 1178 0 
L 603 0 
L 603 3500 
z
M 603 4863 
L 1178 4863 
L 1178 4134 
L 603 4134 
L 603 4863 
z
" transform="scale(0.015625)"/>
       <path id="DejaVuSans-74" d="M 1172 4494 
L 1172 3500 
L 2356 3500 
L 2356 3053 
L 1172 3053 
L 1172 1153 
Q 1172 725 1289 603 
Q 1406 481 1766 481 
L 2356 481 
L 2356 0 
L 1766 0 
Q 1100 0 847 248 
Q 594 497 594 1153 
L 594 3053 
L 172 3053 
L 172 3500 
L 594 3500 
L 594 4494 
L 1172 4494 
z
" transform="scale(0.015625)"/>
       <path id="DejaVuSans-79" d="M 2059 -325 
Q 1816 -950 1584 -1140 
Q 1353 -1331 966 -1331 
L 506 -1331 
L 506 -850 
L 844 -850 
Q 1081 -850 1212 -737 
Q 1344 -625 1503 -206 
L 1606 56 
L 191 3500 
L 800 3500 
L 1894 763 
L 2988 3500 
L 3597 3500 
L 2059 -325 
z
" transform="scale(0.015625)"/>
      </defs>
      <use xlink:href="#DejaVuSans-44"/>
      <use xlink:href="#DejaVuSans-65" transform="translate(77.001953 0)"/>
      <use xlink:href="#DejaVuSans-6e" transform="translate(138.525391 0)"/>
      <use xlink:href="#DejaVuSans-73" transform="translate(201.904297 0)"/>
      <use xlink:href="#DejaVuSans-69" transform="translate(254.003906 0)"/>
      <use xlink:href="#DejaVuSans-74" transform="translate(281.787109 0)"/>
      <use xlink:href="#DejaVuSans-79" transform="translate(320.996094 0)"/>
     </g>
    </g>
   </g>
   <g id="patch_3">
    <path d="M 138.24 483.41952 
L 138.24 65.18016 
" style="fill: none; stroke: #000000; stroke-width: 0.8; stroke-linejoin: miter; stroke-linecap: square"/>
   </g>
   <g id="patch_4">
    <path d="M 995.328 483.41952 
L 995.328 65.18016 
" style="fill: none; stroke: #000000; stroke-width: 0.8; stroke-linejoin: miter; stroke-linecap: square"/>
   </g>
   <g id="patch_5">
    <path d="M 138.24 483.41952 
L 995.328 483.41952 
" style="fill: none; stroke: #000000; stroke-width: 0.8; stroke-linejoin: miter; stroke-linecap: square"/>
   </g>
   <g id="patch_6">
    <path d="M 138.24 65.18016 
L 995.328 65.18016 
" style="fill: none; stroke: #000000; stroke-width: 0.8; stroke-linejoin: miter; stroke-linecap: square"/>
   </g>
   <g id="text_17">
    <!-- Density Plot of Area Mean by Diagnosis -->
    <g transform="translate(448.763063 59.18016) scale(0.12 -0.12)">
     <defs>
      <path id="DejaVuSans-50" d="M 1259 4147 
L 1259 2394 
L 2053 2394 
Q 2494 2394 2734 2622 
Q 2975 2850 2975 3272 
Q 2975 3691 2734 3919 
Q 2494 4147 2053 4147 
L 1259 4147 
z
M 628 4666 
L 2053 4666 
Q 2838 4666 3239 4311 
Q 3641 3956 3641 3272 
Q 3641 2581 3239 2228 
Q 2838 1875 2053 1875 
L 1259 1875 
L 1259 0 
L 628 0 
L 628 4666 
z
" transform="scale(0.015625)"/>
      <path id="DejaVuSans-6c" d="M 603 4863 
L 1178 4863 
L 1178 0 
L 603 0 
L 603 4863 
z
" transform="scale(0.015625)"/>
      <path id="DejaVuSans-6f" d="M 1959 3097 
Q 1497 3097 1228 2736 
Q 959 2375 959 1747 
Q 959 1119 1226 758 
Q 1494 397 1959 397 
Q 2419 397 2687 759 
Q 2956 1122 2956 1747 
Q 2956 2369 2687 2733 
Q 2419 3097 1959 3097 
z
M 1959 3584 
Q 2709 3584 3137 3096 
Q 3566 2609 3566 1747 
Q 3566 888 3137 398 
Q 2709 -91 1959 -91 
Q 1206 -91 779 398 
Q 353 888 353 1747 
Q 353 2609 779 3096 
Q 1206 3584 1959 3584 
z
" transform="scale(0.015625)"/>
      <path id="DejaVuSans-66" d="M 2375 4863 
L 2375 4384 
L 1825 4384 
Q 1516 4384 1395 4259 
Q 1275 4134 1275 3809 
L 1275 3500 
L 2222 3500 
L 2222 3053 
L 1275 3053 
L 1275 0 
L 697 0 
L 697 3053 
L 147 3053 
L 147 3500 
L 697 3500 
L 697 3744 
Q 697 4328 969 4595 
Q 1241 4863 1831 4863 
L 2375 4863 
z
" transform="scale(0.015625)"/>
      <path id="DejaVuSans-62" d="M 3116 1747 
Q 3116 2381 2855 2742 
Q 2594 3103 2138 3103 
Q 1681 3103 1420 2742 
Q 1159 2381 1159 1747 
Q 1159 1113 1420 752 
Q 1681 391 2138 391 
Q 2594 391 2855 752 
Q 3116 1113 3116 1747 
z
M 1159 2969 
Q 1341 3281 1617 3432 
Q 1894 3584 2278 3584 
Q 2916 3584 3314 3078 
Q 3713 2572 3713 1747 
Q 3713 922 3314 415 
Q 2916 -91 2278 -91 
Q 1894 -91 1617 61 
Q 1341 213 1159 525 
L 1159 0 
L 581 0 
L 581 4863 
L 1159 4863 
L 1159 2969 
z
" transform="scale(0.015625)"/>
      <path id="DejaVuSans-67" d="M 2906 1791 
Q 2906 2416 2648 2759 
Q 2391 3103 1925 3103 
Q 1463 3103 1205 2759 
Q 947 2416 947 1791 
Q 947 1169 1205 825 
Q 1463 481 1925 481 
Q 2391 481 2648 825 
Q 2906 1169 2906 1791 
z
M 3481 434 
Q 3481 -459 3084 -895 
Q 2688 -1331 1869 -1331 
Q 1566 -1331 1297 -1286 
Q 1028 -1241 775 -1147 
L 775 -588 
Q 1028 -725 1275 -790 
Q 1522 -856 1778 -856 
Q 2344 -856 2625 -561 
Q 2906 -266 2906 331 
L 2906 616 
Q 2728 306 2450 153 
Q 2172 0 1784 0 
Q 1141 0 747 490 
Q 353 981 353 1791 
Q 353 2603 747 3093 
Q 1141 3584 1784 3584 
Q 2172 3584 2450 3431 
Q 2728 3278 2906 2969 
L 2906 3500 
L 3481 3500 
L 3481 434 
z
" transform="scale(0.015625)"/>
     </defs>
     <use xlink:href="#DejaVuSans-44"/>
     <use xlink:href="#DejaVuSans-65" transform="translate(77.001953 0)"/>
     <use xlink:href="#DejaVuSans-6e" transform="translate(138.525391 0)"/>
     <use xlink:href="#DejaVuSans-73" transform="translate(201.904297 0)"/>
     <use xlink:href="#DejaVuSans-69" transform="translate(254.003906 0)"/>
     <use xlink:href="#DejaVuSans-74" transform="translate(281.787109 0)"/>
     <use xlink:href="#DejaVuSans-79" transform="translate(320.996094 0)"/>
     <use xlink:href="#DejaVuSans-20" transform="translate(380.175781 0)"/>
     <use xlink:href="#DejaVuSans-50" transform="translate(411.962891 0)"/>
     <use xlink:href="#DejaVuSans-6c" transform="translate(472.265625 0)"/>
     <use xlink:href="#DejaVuSans-6f" transform="translate(500.048828 0)"/>
     <use xlink:href="#DejaVuSans-74" transform="translate(561.230469 0)"/>
     <use xlink:href="#DejaVuSans-20" transform="translate(600.439453 0)"/>
     <use xlink:href="#DejaVuSans-6f" transform="translate(632.226562 0)"/>
     <use xlink:href="#DejaVuSans-66" transform="translate(693.408203 0)"/>
     <use xlink:href="#DejaVuSans-20" transform="translate(728.613281 0)"/>
     <use xlink:href="#DejaVuSans-41" transform="translate(760.400391 0)"/>
     <use xlink:href="#DejaVuSans-72" transform="translate(828.808594 0)"/>
     <use xlink:href="#DejaVuSans-65" transform="translate(867.671875 0)"/>
     <use xlink:href="#DejaVuSans-61" transform="translate(929.195312 0)"/>
     <use xlink:href="#DejaVuSans-20" transform="translate(990.474609 0)"/>
     <use xlink:href="#DejaVuSans-4d" transform="translate(1022.261719 0)"/>
     <use xlink:href="#DejaVuSans-65" transform="translate(1108.541016 0)"/>
     <use xlink:href="#DejaVuSans-61" transform="translate(1170.064453 0)"/>
     <use xlink:href="#DejaVuSans-6e" transform="translate(1231.34375 0)"/>
     <use xlink:href="#DejaVuSans-20" transform="translate(1294.722656 0)"/>
     <use xlink:href="#DejaVuSans-62" transform="translate(1326.509766 0)"/>
     <use xlink:href="#DejaVuSans-79" transform="translate(1389.986328 0)"/>
     <use xlink:href="#DejaVuSans-20" transform="translate(1449.166016 0)"/>
     <use xlink:href="#DejaVuSans-44" transform="translate(1480.953125 0)"/>
     <use xlink:href="#DejaVuSans-69" transform="translate(1557.955078 0)"/>
     <use xlink:href="#DejaVuSans-61" transform="translate(1585.738281 0)"/>
     <use xlink:href="#DejaVuSans-67" transform="translate(1647.017578 0)"/>
     <use xlink:href="#DejaVuSans-6e" transform="translate(1710.494141 0)"/>
     <use xlink:href="#DejaVuSans-6f" transform="translate(1773.873047 0)"/>
     <use xlink:href="#DejaVuSans-73" transform="translate(1835.054688 0)"/>
     <use xlink:href="#DejaVuSans-69" transform="translate(1887.154297 0)"/>
     <use xlink:href="#DejaVuSans-73" transform="translate(1914.9375 0)"/>
    </g>
   </g>
   <g id="legend_1">
    <g id="patch_7">
     <path d="M 935.720188 117.214535 
L 988.328 117.214535 
Q 990.328 117.214535 990.328 115.214535 
L 990.328 72.18016 
Q 990.328 70.18016 988.328 70.18016 
L 935.720188 70.18016 
Q 933.720188 70.18016 933.720188 72.18016 
L 933.720188 115.214535 
Q 933.720188 117.214535 935.720188 117.214535 
z
" style="fill: #ffffff; opacity: 0.8; stroke: #cccccc; stroke-linejoin: miter"/>
    </g>
    <g id="text_18">
     <!-- Diagnosis -->
     <g transform="translate(937.720188 81.778597) scale(0.1 -0.1)">
      <use xlink:href="#DejaVuSans-44"/>
      <use xlink:href="#DejaVuSans-69" transform="translate(77.001953 0)"/>
      <use xlink:href="#DejaVuSans-61" transform="translate(104.785156 0)"/>
      <use xlink:href="#DejaVuSans-67" transform="translate(166.064453 0)"/>
      <use xlink:href="#DejaVuSans-6e" transform="translate(229.541016 0)"/>
      <use xlink:href="#DejaVuSans-6f" transform="translate(292.919922 0)"/>
      <use xlink:href="#DejaVuSans-73" transform="translate(354.101562 0)"/>
      <use xlink:href="#DejaVuSans-69" transform="translate(406.201172 0)"/>
      <use xlink:href="#DejaVuSans-73" transform="translate(433.984375 0)"/>
     </g>
    </g>
    <g id="patch_8">
     <path d="M 943.710031 96.456722 
L 963.710031 96.456722 
L 963.710031 89.456722 
L 943.710031 89.456722 
z
" style="fill: #0000ff; fill-opacity: 0.5; stroke: #0000ff; stroke-linejoin: miter"/>
    </g>
    <g id="text_19">
     <!-- M -->
     <g transform="translate(971.710031 96.456722) scale(0.1 -0.1)">
      <use xlink:href="#DejaVuSans-4d"/>
     </g>
    </g>
    <g id="patch_9">
     <path d="M 943.710031 111.134847 
L 963.710031 111.134847 
L 963.710031 104.134847 
L 943.710031 104.134847 
z
" style="fill: #ff0000; fill-opacity: 0.5; stroke: #ff0000; stroke-linejoin: miter"/>
    </g>
    <g id="text_20">
     <!-- B -->
     <g transform="translate(971.710031 111.134847) scale(0.1 -0.1)">
      <defs>
       <path id="DejaVuSans-42" d="M 1259 2228 
L 1259 519 
L 2272 519 
Q 2781 519 3026 730 
Q 3272 941 3272 1375 
Q 3272 1813 3026 2020 
Q 2781 2228 2272 2228 
L 1259 2228 
z
M 1259 4147 
L 1259 2741 
L 2194 2741 
Q 2656 2741 2882 2914 
Q 3109 3088 3109 3444 
Q 3109 3797 2882 3972 
Q 2656 4147 2194 4147 
L 1259 4147 
z
M 628 4666 
L 2241 4666 
Q 2963 4666 3353 4366 
Q 3744 4066 3744 3513 
Q 3744 3084 3544 2831 
Q 3344 2578 2956 2516 
Q 3422 2416 3680 2098 
Q 3938 1781 3938 1306 
Q 3938 681 3513 340 
Q 3088 0 2303 0 
L 628 0 
L 628 4666 
z
" transform="scale(0.015625)"/>
      </defs>
      <use xlink:href="#DejaVuSans-42"/>
     </g>
    </g>
   </g>
  </g>
 </g>
 <defs>
  <clipPath id="pf7a44a828d">
   <rect x="138.24" y="65.18016" width="857.088" height="418.23936"/>
  </clipPath>
 </defs>
</svg>
